# xmcd
#
# Track frame offsets:
#	150
#	17325
#	33046
#	47329
#	60660
#	82304
#	99922
#	116868
#	134331
#	148743
#	164962
#	179210
#
# Disc length: 2564 seconds
#
# Revision: 0
# Processed by: cddbd v1.5.2PL0 Copyright (c) Steve Scherf et al.
# Submitted via: audiograbber 1.83.01
#
DISCID=a90a020c
DTITLE=Lorrie Morgan and Pam Tillis - Come See Me And Come Lonely
DYEAR=2017
DGENRE=Country
TTITLE0=Do Ya
TTITLE1=Walk Right Back
TTITLE2=It's Over
TTITLE3=Guitars, Cadillacs
TTITLE4=Summer Wine
TTITLE5=Saunders Ferry Lane
TTITLE6=Rose In Paradise
TTITLE7=Blanket On The Ground
TTITLE8=Tennessee Waltz
TTITLE9=It Doesn't Matter Anymore
TTITLE10=The End Of The World
TTITLE11=Come See Me And Come Lonely
EXTD=
EXTT0=
EXTT1=
EXTT2=
EXTT3=
EXTT4=
EXTT5=
EXTT6=
EXTT7=
EXTT8=
EXTT9=
EXTT10=
EXTT11=
PLAYORDER=
